<svg xmlns="http://www.w3.org/2000/svg" width="91" height="95.476" viewBox="0 0 91 95.476"><defs><style>.a{fill:#fff;}</style></defs><g transform="translate(-3)"><path class="a" d="M42.118,31.5a5.838,5.838,0,0,0,1.353-.542,1.492,1.492,0,1,0-1.426-2.621q-.342.186-.678.381a1.492,1.492,0,0,0,.751,2.782Zm-5.585,5.142q.223-.267.453-.527a1.492,1.492,0,0,0-2.234-1.978q-.258.292-.509.591a1.492,1.492,0,1,0,2.289,1.914Zm-4.728,4.6a1.5,1.5,0,0,0-1.935.841q-.143.363-.276.73A1.492,1.492,0,1,0,32.4,43.829q.119-.328.247-.653a1.492,1.492,0,0,0-.841-1.935Zm18.572-12.77c.087,0,.719-.1.948-.135a1.492,1.492,0,1,0-.437-2.952q-.387.057-.771.126a1.492,1.492,0,0,0,.26,2.961ZM30.315,58.55a1.492,1.492,0,0,0-.945,1.886q.123.371.258.739a1.492,1.492,0,1,0,2.8-1.027q-.119-.324-.228-.653a1.493,1.493,0,0,0-1.886-.945ZM28.01,51.218q-.01.363-.01.728V52a1.471,1.471,0,0,0,1.492,1.467,1.513,1.513,0,0,0,1.492-1.517q0-.325.009-.648a1.492,1.492,0,0,0-1.451-1.532,1.469,1.469,0,0,0-1.532,1.451Zm31.9-22.637a1.492,1.492,0,0,0,.293-2.954q-.381-.077-.766-.143a1.492,1.492,0,0,0-.507,2.94C59.157,28.463,59.81,28.581,59.908,28.581ZM74.694,37.64a1.492,1.492,0,0,0,1.164-2.423q-.243-.3-.494-.6a1.492,1.492,0,0,0-2.279,1.925q.225.266.442.538A1.489,1.489,0,0,0,74.694,37.64Zm5.364,5.028a1.492,1.492,0,1,0-2.8,1.032q.119.323.229.652a1.492,1.492,0,0,0,2.83-.945Q80.194,43.035,80.058,42.668ZM77.879,62.7a1.491,1.491,0,0,0,1.937-.837q.144-.363.278-.731a1.492,1.492,0,1,0-2.8-1.021q-.119.328-.248.652a1.492,1.492,0,0,0,.837,1.937Zm.842-10.848s0,.563-.01.793a1.492,1.492,0,0,0,1.449,1.533H80.2a1.491,1.491,0,0,0,1.49-1.45c.007-.259.011-.878.011-.878a1.492,1.492,0,1,0-2.984,0Zm-12-20.616a5.654,5.654,0,0,0,1.376.576,1.492,1.492,0,0,0,.783-2.763q-.334-.2-.674-.4a1.492,1.492,0,0,0-1.485,2.587Z" transform="translate(-6.352 -6.446)"/><path class="a" d="M89.669,39.04H85.63a37.507,37.507,0,0,0-1.74-6.512l3.493-2.017a4.331,4.331,0,0,0,1.585-5.916l-2.13-3.688a4.336,4.336,0,0,0-5.916-1.585l-3.5,2.022a37.922,37.922,0,0,0-4.763-4.764l2.022-3.5a4.336,4.336,0,0,0-1.586-5.916l-3.688-2.13A4.331,4.331,0,0,0,63.49,6.616L61.473,10.11A37.506,37.506,0,0,0,54.96,8.37V4.331A4.336,4.336,0,0,0,50.63,0H46.37A4.336,4.336,0,0,0,42.04,4.331V8.37a37.507,37.507,0,0,0-6.512,1.74L33.51,6.616a4.331,4.331,0,0,0-5.916-1.585L23.906,7.16a4.336,4.336,0,0,0-1.586,5.917l2.022,3.5a37.922,37.922,0,0,0-4.763,4.763l-3.5-2.022a4.337,4.337,0,0,0-5.916,1.586l-2.13,3.688A4.331,4.331,0,0,0,9.616,30.51l3.493,2.017a37.507,37.507,0,0,0-1.74,6.512H7.331A4.336,4.336,0,0,0,3,43.37V47.63A4.336,4.336,0,0,0,7.331,51.96H11.37a37.507,37.507,0,0,0,1.74,6.512L9.616,60.49a4.331,4.331,0,0,0-1.585,5.916l2.13,3.688a4.336,4.336,0,0,0,5.916,1.585l.058-.034A18.835,18.835,0,0,1,17.6,67.354L14.586,69.1a1.349,1.349,0,0,1-1.841-.493l-2.13-3.688a1.348,1.348,0,0,1,.493-1.841l4.6-2.655a1.491,1.491,0,0,0,.636-1.854,34.5,34.5,0,0,1-2.218-8.3,1.492,1.492,0,0,0-1.478-1.289H7.331A1.349,1.349,0,0,1,5.984,47.63V43.37a1.349,1.349,0,0,1,1.348-1.347h5.316a1.492,1.492,0,0,0,1.478-1.289,34.5,34.5,0,0,1,2.218-8.3,1.491,1.491,0,0,0-.636-1.854l-4.6-2.655a1.348,1.348,0,0,1-.493-1.841l2.13-3.688a1.35,1.35,0,0,1,1.841-.494l4.607,2.66a1.492,1.492,0,0,0,1.922-.375,35,35,0,0,1,6.075-6.075,1.491,1.491,0,0,0,.375-1.922L24.9,11.586A1.349,1.349,0,0,1,25.4,9.744l3.688-2.13a1.348,1.348,0,0,1,1.841.493l2.655,4.6a1.49,1.49,0,0,0,1.854.636,34.5,34.5,0,0,1,8.3-2.218,1.492,1.492,0,0,0,1.289-1.478V4.331A1.349,1.349,0,0,1,46.37,2.984H50.63a1.349,1.349,0,0,1,1.347,1.348V9.648a1.492,1.492,0,0,0,1.289,1.478,34.5,34.5,0,0,1,8.3,2.218,1.49,1.49,0,0,0,1.854-.636l2.655-4.6a1.348,1.348,0,0,1,1.841-.493L71.6,9.745a1.349,1.349,0,0,1,.493,1.84l-2.66,4.607a1.491,1.491,0,0,0,.375,1.922,35,35,0,0,1,6.075,6.075,1.491,1.491,0,0,0,1.922.375L82.414,21.9a1.349,1.349,0,0,1,1.841.493l2.13,3.688a1.348,1.348,0,0,1-.493,1.841l-4.6,2.655a1.491,1.491,0,0,0-.636,1.854,34.5,34.5,0,0,1,2.218,8.3,1.492,1.492,0,0,0,1.478,1.289h5.316a1.349,1.349,0,0,1,1.348,1.347V47.63a1.349,1.349,0,0,1-1.348,1.347H84.352a1.492,1.492,0,0,0-1.478,1.289,34.5,34.5,0,0,1-2.218,8.3,1.491,1.491,0,0,0,.636,1.854l4.6,2.655a1.348,1.348,0,0,1,.493,1.841L84.256,68.6a1.349,1.349,0,0,1-1.841.494L79.4,67.354a18.839,18.839,0,0,1,1.467,4.292l.059.034a4.337,4.337,0,0,0,5.916-1.586l2.13-3.688a4.331,4.331,0,0,0-1.585-5.916L83.89,58.473a37.508,37.508,0,0,0,1.74-6.512h4.038A4.336,4.336,0,0,0,94,47.63V43.37a4.336,4.336,0,0,0-4.331-4.331Z"/><path class="a" d="M57.609,86.475l-3.427,16.577a2.966,2.966,0,0,0,.709,2.5l4.372,4.919a2.983,2.983,0,0,0,4.46,0l4.372-4.919a2.988,2.988,0,0,0,.7-2.544L65.378,86.475a19.353,19.353,0,0,1-2.97.368l3.459,16.727-4.373,4.919-4.381-4.877,3.467-16.77A19.359,19.359,0,0,1,57.609,86.475Z" transform="translate(-12.994 -21.973)"/><path class="a" d="M67.04,80.019a19.484,19.484,0,0,1-4.175,2.97h3.52c8.422,0,14.3,5.478,14.3,13.321v15.106a1.454,1.454,0,0,1-1.492,1.41H28.475a1.454,1.454,0,0,1-1.492-1.409V96.309c0-7.843,5.882-13.321,14.3-13.321h3.52a19.484,19.484,0,0,1-4.175-2.97C30.956,80.312,24,87.07,24,96.309v15.106a4.44,4.44,0,0,0,4.475,4.393H79.2a4.44,4.44,0,0,0,4.475-4.393V96.309C83.672,87.07,76.716,80.312,67.04,80.019Z" transform="translate(-5.336 -20.333)"/><path class="a" d="M58.41,71.82A16.41,16.41,0,1,0,42,55.41,16.41,16.41,0,0,0,58.41,71.82Zm0-29.836A13.426,13.426,0,1,1,44.984,55.41,13.426,13.426,0,0,1,58.41,41.984Z" transform="translate(-9.91 -9.91)"/></g></svg>