<svg xmlns="http://www.w3.org/2000/svg" width="85" height="85" viewBox="0 0 85 85"><defs><style>.a{fill:#fff;}</style></defs><g transform="translate(-2 -2)"><path class="a" d="M65.114,11.989l-4.07-1.357-12.593-8.4A1.427,1.427,0,0,0,47.667,2H36.333a1.412,1.412,0,0,0-.85.283L24.378,10.611,18.99,11.959a1.415,1.415,0,0,0-1.074,1.374V19a1.417,1.417,0,0,0,.969,1.345l3.693,1.231,2.544,5.089a13.876,13.876,0,0,0,2.07,3.876A16.882,16.882,0,0,0,31.663,52.3l-8.85,4.165-1.087.511L12.067,61.52A7.115,7.115,0,0,0,8,67.93V85.583A1.417,1.417,0,0,0,9.417,87H74.583A1.417,1.417,0,0,0,76,85.583V67.93a7.112,7.112,0,0,0-4.067-6.409L52.337,52.3A16.884,16.884,0,0,0,56.8,30.53a13.986,13.986,0,0,0,2.061-3.841l2.557-5.116,3.693-1.231A1.412,1.412,0,0,0,66.083,19V13.333a1.417,1.417,0,0,0-.969-1.345ZM55.423,27.5A10.937,10.937,0,0,1,54.1,29.353c-.031.03-.068.055-.1.088a11.115,11.115,0,0,1-4.624,3.1c-.091.031-.178.065-.269.095a10.893,10.893,0,0,1-1.418.344c-.19.034-.378.069-.57.094a11.17,11.17,0,0,1-1.327.089H38.206a11.153,11.153,0,0,1-1.329-.091c-.191-.024-.381-.06-.571-.093a11.257,11.257,0,0,1-1.428-.349c-.079-.025-.157-.055-.235-.082A11.1,11.1,0,0,1,30,29.441a1.31,1.31,0,0,0-.14-.126A10.837,10.837,0,0,1,28.57,27.5Zm-21.4,26.817.564-.188c.067.033.139.054.205.085l.129.057c.245.113.492.225.742.326l.084.037c.118.047.238.088.36.129l.064.023c.106.038.211.078.317.115q.484.166.983.3l.068.021c.14.038.28.071.419.1.472.116.951.21,1.438.285l.079.016h.006l.16.026.289.041c.225.027.45.05.679.068a15.071,15.071,0,0,0,2.77,0c.222-.018.443-.04.663-.065l.3-.044.166-.026.081-.016c.473-.074.941-.163,1.4-.275.153-.037.306-.072.455-.113l.074-.024c.33-.092.657-.191.979-.3.108-.037.213-.077.319-.115l.062-.023c.122-.041.242-.082.357-.129l.079-.035c.255-.1.5-.215.754-.33l.122-.054c.068-.033.14-.054.208-.086l.03.013,2.078.97L42,61.232l-9.58-6.158ZM10.833,67.93a4.268,4.268,0,0,1,2.441-3.846l3.1-1.459,34.5,21.542H10.833Zm45.4,16.236-36.8-22.978,1.993-.938,1.9-.893L62.409,84.167ZM73.167,67.93V84.167H67.7L26.351,57.93,29.4,56.5l11.839,7.61a1.408,1.408,0,0,0,1.531,0L54.553,56.53l16.174,7.552A4.271,4.271,0,0,1,73.167,67.93ZM48.476,51.419A13.945,13.945,0,0,1,47.189,52c-.078.031-.157.057-.237.086l-.177.062-.024.007q-.575.207-1.166.364h0a13.922,13.922,0,0,1-1.733.34l-.2.03a14.232,14.232,0,0,1-3.312,0l-.187-.028a14.359,14.359,0,0,1-1.745-.343q-.6-.159-1.186-.37l-.159-.055c-.085-.031-.17-.059-.254-.094a13.94,13.94,0,0,1-1.286-.584,14.171,14.171,0,0,1-7.691-12.586,13.983,13.983,0,0,1,1.414-6.119,13.818,13.818,0,0,0,7.595,3.212c.057.006.112.016.169.02.4.034.793.054,1.194.054h7.589c.4,0,.8-.02,1.193-.054l.17-.02q.529-.051,1.047-.143l.067-.013a13.779,13.779,0,0,0,6.478-3.061,13.977,13.977,0,0,1,1.417,6.126,14.167,14.167,0,0,1-7.69,12.584ZM63.25,17.979l-3.281,1.094a1.421,1.421,0,0,0-.819.71l-2.442,4.885H43.815l4.958-6.2a1.394,1.394,0,0,0,.266-.541l1.417-5.667A1.414,1.414,0,0,0,49.083,10.5H45.168L42.633,9.232a1.417,1.417,0,0,0-1.268,0L38.832,10.5H34.917a1.414,1.414,0,0,0-1.374,1.761l1.417,5.667a1.413,1.413,0,0,0,.266.541l4.958,6.2H27.291l-2.442-4.883a1.421,1.421,0,0,0-.819-.71l-3.28-1.1v-3.54l4.593-1.149a1.39,1.39,0,0,0,.506-.241L36.805,4.833H47.237L59.63,13.1a1.531,1.531,0,0,0,.339.166l3.281,1.094v3.624ZM42,22.4l-4.368-5.46-.9-3.605h2.435a1.42,1.42,0,0,0,.633-.149l2.2-1.1,2.2,1.1a1.4,1.4,0,0,0,.633.15h2.435l-.9,3.607Z" transform="translate(2.5 0)"/><path class="a" d="M42,51h8.5v2.833H42Z" transform="translate(16.667 20.417)"/><path class="a" d="M66.4,36.984l1.417-8.5a1.419,1.419,0,0,0-1.4-1.65H62.6l-3.893-2.6a1.417,1.417,0,0,0-1.571,0l-3.894,2.6H49.417a1.421,1.421,0,0,0-1.4,1.65l1.417,8.5a1.411,1.411,0,0,0,.4.768l7.083,7.083a1.418,1.418,0,0,0,2,0L66,37.752a1.415,1.415,0,0,0,.4-.768Zm-2.72-.914-5.76,5.76-5.76-5.76-1.067-6.4h2.577a1.425,1.425,0,0,0,.786-.238l3.464-2.309,3.464,2.309a1.425,1.425,0,0,0,.786.238h2.577l-1.067,6.4Z" transform="translate(19.167 9.167)"/><path class="a" d="M3.832,37.752l7.083,7.083a1.412,1.412,0,0,0,2,0L20,37.752a1.415,1.415,0,0,0,.4-.768l1.417-8.5a1.419,1.419,0,0,0-1.4-1.65H16.6l-3.893-2.6a1.417,1.417,0,0,0-1.571,0l-3.894,2.6H3.417a1.421,1.421,0,0,0-1.4,1.65l1.417,8.5A1.427,1.427,0,0,0,3.832,37.752Zm3.835-8.085a1.425,1.425,0,0,0,.786-.238l3.464-2.309,3.464,2.309a1.424,1.424,0,0,0,.786.238h2.577l-1.067,6.4-5.76,5.76-5.76-5.76-1.067-6.4Z" transform="translate(0 9.167)"/></g></svg>