<svg xmlns="http://www.w3.org/2000/svg" width="70.859" height="90" viewBox="0 0 70.859 90"><defs><style>.a{fill:#fff;}</style></defs><path class="a" d="M69.116,50.766l-12.991-5.7a13.744,13.744,0,0,0,2.8-5.7l4.133-2.1a4.527,4.527,0,0,0,2.51-4.053V31.4a4.387,4.387,0,0,0-4.429-4.5,2.474,2.474,0,0,0-1.033.15h-.443v-3a10.428,10.428,0,0,0,7.381-10.058v-.15A7.29,7.29,0,0,0,62.03,6.779l-9.3-3.153a28.224,28.224,0,0,0-18.6,0l-9.3,3.153a7.43,7.43,0,0,0-5.019,7.056,10.415,10.415,0,0,0,6.5,9.758l.886.3v3l-.443-.15a4.4,4.4,0,0,0-5.314,3.3,4.706,4.706,0,0,0-.148,1.351v1.8a4.432,4.432,0,0,0,2.51,4.053l4.133,2.1a18.619,18.619,0,0,0,2.8,5.7l-12.991,5.7A16.625,16.625,0,0,0,8,65.928V92.05H78.859V65.778A16.411,16.411,0,0,0,69.116,50.766ZM57.9,48.964,54.649,56.62l-7.381-5.7a6.893,6.893,0,0,0,2.214-.9l1.329-.6a12.622,12.622,0,0,0,3.248-2.252ZM60.849,29.9a1.516,1.516,0,0,1,1.771,1.051v2.1a1.444,1.444,0,0,1-.886,1.351l-2.067,1.2V30.2ZM25.124,34.552a1.727,1.727,0,0,1-.886-1.351V31.4a1.407,1.407,0,0,1,1.476-1.5h.3l1.181.3v5.4Zm3.4-13.211-1.181-.45a7.325,7.325,0,0,1-4.576-7.056,4.315,4.315,0,0,1,3.1-4.2l9.153-3.153a24.918,24.918,0,0,1,16.829,0l9.153,3a4.5,4.5,0,0,1,3.1,4.354v.3a7.681,7.681,0,0,1-5.61,7.356l-.59-.3h0a27.844,27.844,0,0,0-28.934,0Zm27.015,1.8-4.133,3.3A4.615,4.615,0,0,1,48.6,27.5H36.934a3.989,3.989,0,0,1-3.1-1.351l-2.8-2.852a25,25,0,0,1,24.505-.15ZM30.143,34.7V26.6l1.624,1.651A7.458,7.458,0,0,0,36.934,30.5H48.6a7.45,7.45,0,0,0,4.576-1.651l3.4-2.7V34.7a13.3,13.3,0,0,1-7.381,12.01l-1.329.6a10.165,10.165,0,0,1-9.3,0l-1.033-.45A13.52,13.52,0,0,1,30.143,34.7ZM44.463,57.371a1.411,1.411,0,0,1-2.067,0l-2.657-2.7,3.691-2.852,3.691,2.852ZM46.087,68.33a15.79,15.79,0,0,0-5.314,0l.886-7.957a4.814,4.814,0,0,0,3.543,0ZM32.8,47.313a15.8,15.8,0,0,0,3.248,2.252l1.329.6,2.214.9-7.381,5.7-3.248-7.656ZM25.715,89.048V74.035H22.762V89.048H10.952V65.778a13.287,13.287,0,0,1,7.972-12.31l7.381-3.3,4.724,11.259,6.348-4.8,1.476,1.5L37.672,69.231A15,15,0,0,0,29.7,88.747c0,.15.148.15.148.3Zm16.239,0h-8.71A11.83,11.83,0,0,1,32.8,77.938l9.3,5.855v5.254ZM34.277,75.386a11.747,11.747,0,0,1,16.534-1.8,10.107,10.107,0,0,1,1.771,1.8L43.43,81.241ZM53.616,89.048h-8.71v-5.1l9.3-5.855A11.988,11.988,0,0,1,53.616,89.048Zm22.291,0H64.1V74.035H61.144V89.048H56.863a14.948,14.948,0,0,0-7.529-19.666c-.148,0-.148-.15-.3-.15L47.858,58.122l1.476-1.5,6.348,4.8,4.724-11.259,7.381,3.3a13.444,13.444,0,0,1,7.972,12.31V89.048Z" transform="translate(-8 -2.05)"/></svg>